<?xml version="1.0" encoding="UTF-8"?>
<!-- Generated by Pixelmator Pro 4.2 -->
<svg width="754" height="210" viewBox="0 0 754 210" xmlns="http://www.w3.org/2000/svg">
    <g id="Group">
        <path id="cant--u" fill="#2b2d31" stroke="none" d="M 642.325317 133.164063 C 642.325317 138.565125 642.856567 143.16925 643.919067 146.976563 C 644.804504 150.252625 646.22113 152.908844 648.169067 154.945313 C 649.851379 156.89325 652.286255 158.309875 655.473755 159.195313 C 658.661255 160.346375 662.822693 160.921875 667.95813 160.921875 C 673.005005 160.921875 677.166443 160.346375 680.442505 159.195313 C 683.541504 158.309875 685.976318 156.89325 687.747192 154.945313 C 689.606567 152.908844 691.023254 150.252625 691.997192 146.976563 C 693.059692 143.16925 693.590942 138.565125 693.590942 133.164063 L 693.590942 58.921875 L 732.505005 58.921875 L 732.505005 124.796875 C 732.505005 137.104248 731.265442 147.684845 728.786255 156.539063 C 726.218506 165.92453 722.322754 173.494751 717.098755 179.25 C 711.874756 185.270874 705.057129 189.742188 696.64563 192.664063 C 688.411194 195.497406 678.937317 196.914063 668.223755 196.914063 C 657.333069 196.914063 647.726379 195.497406 639.403442 192.664063 C 630.903381 189.91925 624.041504 185.536499 618.817505 179.515625 C 613.593506 173.848938 609.697693 166.234436 607.130005 156.671875 C 604.650818 147.817657 603.411255 137.192749 603.411255 124.796875 L 603.411255 58.921875 L 642.325317 58.921875 Z M 432.744385 192 L 471.658447 192 L 471.658447 94.382813 L 493.04126 94.382813 L 493.04126 58.921875 L 471.658447 58.921875 L 471.658447 12.703125 L 432.744385 12.703125 L 432.744385 58.921875 L 411.361572 58.921875 L 411.361572 94.382813 L 432.744385 94.382813 Z M 276.947174 58.921875 L 314.267487 58.921875 L 314.267487 69.28125 C 317.897736 65.916626 321.749237 63.171875 325.822174 61.046875 C 329.983673 59.010376 334.676331 57.416687 339.900299 56.265625 C 345.478455 55.203125 350.835175 54.671875 355.970612 54.671875 C 360.751892 54.671875 365.267456 55.070313 369.517456 55.867188 C 373.856079 56.664063 377.840393 57.859375 381.470581 59.453125 C 385.189392 61.223999 388.465393 63.304688 391.298706 65.695313 C 394.13208 68.1745 396.655518 71.052063 398.869019 74.328125 C 400.020142 76.364624 401.082642 78.489563 402.056519 80.703125 C 402.853455 82.828125 403.561768 85.21875 404.181519 87.875 C 404.71283 90.442749 405.111206 93.807251 405.376831 97.96875 C 405.642456 102.130249 405.775269 106.955688 405.775269 112.445313 L 405.775269 192 L 366.462769 192 L 366.462769 123.734375 C 366.462769 115.854126 366.020142 109.479187 365.134644 104.609375 C 364.249268 100.182251 363.142517 96.994812 361.814362 95.046875 C 360.397705 93.276001 358.49408 91.903687 356.103424 90.929688 C 353.181549 89.867188 349.595642 89.335938 345.345612 89.335938 C 342.335205 89.335938 339.634705 89.601563 337.244049 90.132813 C 334.853424 90.664063 332.551361 91.416626 330.337799 92.390625 C 328.124268 93.453125 326.220642 94.648438 324.626862 95.976563 C 323.210205 97.216187 321.83783 98.765625 320.509674 100.625 L 320.376862 100.757813 C 319.579987 101.820313 318.915955 103.104126 318.384674 104.609375 C 317.764893 106.203125 317.277924 107.929688 316.923737 109.789063 C 316.658112 111.914063 316.392487 114.703125 316.126862 118.15625 C 315.949799 122.583374 315.861237 126.833313 315.861237 130.90625 L 315.861237 192 L 276.947174 192 Z M 225.803772 125.0625 C 225.803772 119.307251 225.139709 114.216187 223.811584 109.789063 C 222.483429 105.539063 220.624084 101.953125 218.233459 99.03125 C 215.754272 96.286438 212.920959 94.161499 209.733459 92.65625 C 206.368835 91.239563 202.384521 90.53125 197.780334 90.53125 C 193.441742 90.53125 189.457397 91.239563 185.827209 92.65625 C 182.462585 94.25 179.540741 96.507813 177.061584 99.429688 C 174.493835 102.528687 172.59021 106.203125 171.350647 110.453125 C 169.93396 114.880249 169.225647 120.104126 169.225647 126.125 C 169.225647 132.234375 169.889679 137.458313 171.217834 141.796875 C 172.368866 146.046906 174.22821 149.632813 176.795959 152.554688 C 179.186584 155.476563 181.975616 157.601563 185.163147 158.929688 C 188.704803 160.434906 192.733398 161.1875 197.249084 161.1875 C 201.499084 161.1875 205.306335 160.390625 208.670959 158.796875 C 211.858459 157.46875 214.824585 155.122406 217.569397 151.757813 C 220.314178 148.304688 222.350616 144.497437 223.678772 140.335938 C 225.095428 135.997375 225.803772 130.90625 225.803772 125.0625 Z M 225.006897 192 L 225.006897 184.828125 C 222.084991 187.307312 218.941772 189.432281 215.577209 191.203125 C 211.592773 193.151062 207.564209 194.567688 203.491272 195.453125 C 199.152679 196.427094 194.725647 196.914063 190.210022 196.914063 C 181.001617 196.914063 172.545959 195.276062 164.842834 192 C 157.316711 188.901031 150.764709 184.031281 145.186584 177.390625 C 139.608398 170.661438 135.579803 163.002655 133.100647 154.414063 C 130.355835 146.002563 128.983459 136.307373 128.983459 125.328125 C 128.983459 115.411377 130.355835 106.026123 133.100647 97.171875 C 135.93396 88.583313 140.095398 81.057312 145.585022 74.59375 C 151.163147 67.953125 157.626648 62.950562 164.975647 59.585938 C 172.236084 56.309875 180.381836 54.671875 189.413147 54.671875 C 194.460022 54.671875 199.506836 55.247375 204.553772 56.398438 C 209.423584 57.638062 213.806335 59.408813 217.702209 61.710938 C 219.915741 63.039063 222.350616 64.809875 225.006897 67.023438 L 225.006897 58.921875 L 263.920929 58.921875 L 263.920929 192 Z M 108.445313 97.4375 C 106.23175 95.84375 103.929703 94.515625 101.539063 93.453125 C 99.148422 92.390625 96.536469 91.5495 93.703125 90.929688 C 91.04686 90.398438 88.213562 90.132813 85.203125 90.132813 C 80.244766 90.132813 75.773468 90.929688 71.789063 92.523438 C 67.98175 94.028687 64.617203 96.330688 61.695313 99.429688 L 61.828125 99.429688 C 58.729156 102.794312 56.515625 106.46875 55.1875 110.453125 C 53.682281 114.880249 52.929688 119.75 52.929688 125.0625 C 52.929688 130.729187 53.682281 135.820313 55.1875 140.335938 C 56.515625 144.497437 58.729156 148.127594 61.828125 151.226563 C 64.572937 154.237 67.98175 156.539063 72.054688 158.132813 C 76.216156 159.638031 81.041641 160.390625 86.53125 160.390625 C 89.541687 160.390625 92.374985 160.125 95.03125 159.59375 C 97.687515 159.0625 100.122375 158.221375 102.335938 157.070313 C 102.955734 156.4505 103.951813 155.83075 105.324219 155.210938 C 106.696625 154.591125 107.825516 153.882813 108.710938 153.085938 C 111.809906 150.518219 114.554688 148.061218 116.945313 145.714844 C 119.335938 143.368469 121.726563 140.513062 124.117188 137.148438 L 124.117188 185.890625 L 121.328125 187.484375 C 118.140625 189.34375 115.263031 190.716125 112.695313 191.601563 C 109.861969 192.664063 106.763031 193.638 103.398438 194.523438 C 100.476547 195.231781 97.244812 195.807281 93.703125 196.25 C 89.98436 196.692719 86.575531 196.914063 83.476563 196.914063 C 73.382751 196.914063 63.997437 195.276062 55.320313 192 C 46.820267 188.901031 39.294312 183.942749 32.742188 177.125 C 26.190063 170.661438 21.231781 163.002655 17.867188 154.148438 C 14.591125 145.8255 12.953125 136.395874 12.953125 125.859375 C 12.953125 115.499939 14.635406 105.937561 18 97.171875 C 21.364594 88.760376 26.499969 81.145874 33.40625 74.328125 C 40.135452 67.6875 47.971313 62.773438 56.914063 59.585938 C 65.502655 56.309875 75.286407 54.671875 86.265625 54.671875 C 89.895844 54.671875 93.127594 54.848938 95.960938 55.203125 C 100.033875 55.734375 103.04425 56.221375 104.992188 56.664063 C 107.825531 57.372437 110.658844 58.257813 113.492188 59.320313 C 115.882813 60.294312 118.494781 61.489563 121.328125 62.90625 L 124.117188 64.5 L 124.117188 111.914063 C 121.726563 108.638 119.358093 106.003906 117.011719 104.011719 C 114.665344 102.019531 111.809906 99.828125 108.445313 97.4375 Z"/>
        <g id="g1">
            <path id="Path" fill="#2b2d31" fill-rule="evenodd" stroke="none" d="M 519.431641 79.452942 C 526.267456 79.214233 532.002808 84.562515 532.241516 91.398315 C 532.480225 98.234001 527.131958 103.969757 520.296143 104.208473 C 513.462097 104.447121 507.724884 99.095947 507.486267 92.262787 C 507.247559 85.426987 512.595825 79.69165 519.431641 79.452942"/>
            <path id="path1" fill="#f7921e" fill-rule="evenodd" stroke="none" d="M 537.139832 61.900131 C 540.264893 61.419037 543.423035 61.135788 546.486267 61.028824 C 584.846313 59.689255 617.029968 89.700958 618.369507 128.060989 C 618.613403 135.046082 617.807068 142.015717 615.983215 148.732224 C 615.609192 150.110489 614.560669 151.092346 613.161621 151.377518 C 611.761292 151.661896 610.411865 151.164429 609.529907 150.039627 C 589.867737 124.981201 551.990784 132.937088 547.728333 85.800568 C 546.832275 78.022552 542.411743 71.292038 536.030212 67.317383 C 534.963257 66.652466 534.447876 65.453262 534.700317 64.221741 C 534.952759 62.991394 535.897949 62.092224 537.139832 61.900131"/>
            <path id="path2" fill="#ffdb4c" fill-rule="evenodd" stroke="none" d="M 537.139832 61.900131 C 540.264893 61.419037 543.423035 61.135788 546.486267 61.028824 C 584.846313 59.689255 617.029968 89.700958 618.369507 128.060989 C 618.462341 130.720062 618.403015 133.377319 618.193054 136.018387 C 607.502319 63.388779 537.139832 61.900131 537.139832 61.900131"/>
            <path id="path3" fill="#b3660e" fill-rule="evenodd" stroke="none" d="M 615.983215 148.732224 C 615.609192 150.110489 614.560669 151.092346 613.161621 151.377518 C 611.761292 151.661896 610.411865 151.164429 609.529907 150.039627 C 589.867737 124.981201 551.990784 132.937088 547.728333 85.800568 C 546.864502 78.300247 542.722229 71.773758 536.705505 67.75322 C 544.438293 71.07338 550.998169 74.927109 554.262878 85.591515 C 557.997681 97.793053 563.724243 115.447609 588.769714 120.484169 C 601.740173 123.092148 620.308899 132.794739 615.983215 148.732224"/>
            <path id="path4" fill="#2b2d31" fill-rule="evenodd" stroke="none" d="M 485.297852 102.489494 C 481.110168 112.008278 479.087524 122.402618 479.454498 132.912018 C 480.794067 171.272095 512.977234 201.283707 551.337341 199.944138 C 571.672119 199.234039 590.546326 189.666229 603.126282 173.983521 C 606.120605 170.250534 606.409424 165.26355 603.86554 161.210175 C 589.810547 138.815018 566.404602 143.06778 548.103271 121.43927 C 547.185181 120.354042 545.934082 119.809456 544.514282 119.879074 C 543.095093 119.947754 541.902649 120.610733 541.094727 121.779678 C 535.93512 129.242889 527.484253 133.985611 518.173279 134.31076 C 502.110168 134.871704 488.63382 122.304787 488.072906 106.241608 C 488.037231 105.220207 488.055237 104.200424 488.126038 103.188217 C 488.177246 102.464279 487.709045 101.822121 487.005157 101.648689 C 486.301636 101.475189 485.589996 101.825653 485.297852 102.489494"/>
            <path id="path5" fill="#3e4047" fill-rule="evenodd" stroke="none" d="M 485.297852 102.489494 C 481.110168 112.008278 479.087524 122.402618 479.454498 132.912018 C 480.794067 171.272095 512.977234 201.283707 551.337341 199.944138 C 571.672119 199.234039 590.546326 189.666229 603.126282 173.983521 C 606.120605 170.250534 606.409424 165.26355 603.86554 161.210175 C 602.500122 159.035446 601.045349 157.114624 599.517761 155.393875 C 573.197632 191.813507 468.767517 188.436417 485.297852 102.489494"/>
        </g>
    </g>
</svg>
